<?xml version="1.0" encoding="UTF-8" standalone="no"?>
<!-- Created with Inkscape (http://www.inkscape.org/) -->

<svg
   xmlns:dc="http://purl.org/dc/elements/1.1/"
   xmlns:cc="http://creativecommons.org/ns#"
   xmlns:rdf="http://www.w3.org/1999/02/22-rdf-syntax-ns#"
   xmlns:svg="http://www.w3.org/2000/svg"
   xmlns="http://www.w3.org/2000/svg"
   xmlns:sodipodi="http://sodipodi.sourceforge.net/DTD/sodipodi-0.dtd"
   xmlns:inkscape="http://www.inkscape.org/namespaces/inkscape"
   width="210mm"
   height="297mm"
   viewBox="0 0 210 297"
   version="1.1"
   id="svg8"
   inkscape:version="0.92.4 (5da689c313, 2019-01-14)"
   sodipodi:docname="Logo.svg">
  <defs
     id="defs2" />
  <sodipodi:namedview
     id="base"
     pagecolor="#ffffff"
     bordercolor="#666666"
     borderopacity="1.0"
     inkscape:pageopacity="0.0"
     inkscape:pageshadow="2"
     inkscape:zoom="0.35"
     inkscape:cx="400"
     inkscape:cy="674.28571"
     inkscape:document-units="mm"
     inkscape:current-layer="layer1"
     showgrid="false"
     inkscape:window-width="1366"
     inkscape:window-height="705"
     inkscape:window-x="-8"
     inkscape:window-y="-8"
     inkscape:window-maximized="1" />
  <metadata
     id="metadata5">
    <rdf:RDF>
      <cc:Work
         rdf:about="">
        <dc:format>image/svg+xml</dc:format>
        <dc:type
           rdf:resource="http://purl.org/dc/dcmitype/StillImage" />
        <dc:title />
      </cc:Work>
    </rdf:RDF>
  </metadata>
  <g
     inkscape:label="Capa 1"
     inkscape:groupmode="layer"
     id="layer1">
    <path
       id="path3737"
       d="m 35.155801,59.609169 c 5.252182,-1.256848 10.80292,-1.636691 16.143411,-2.660354 4.640993,-0.979627 9.436256,-1.547612 14.277826,-1.779306 6.561278,-0.263313 12.939828,-1.798457 19.279044,-2.936434 1.315169,-0.21188 2.646495,-0.382089 3.945506,-0.63564 2.382529,-0.465047 4.678747,-1.115385 7.045376,-1.616305 3.070641,-0.64993 6.146366,-1.122581 9.172496,-1.866762 4.89907,-1.097696 9.8388,-2.097905 14.7659,-3.138376 4.90795,-1.378733 9.6697,-2.93808 14.23223,-4.783217 18.59033,-7.539845 -64.121332,25.497095 6.19083,-2.338745 5.80402,-2.297753 -11.64086,4.557998 -17.5134,6.774379 -1.31171,0.495056 2.45903,-1.168847 3.65252,-1.78617 3.71188,-2.026044 6.69353,-4.544095 9.52497,-7.119234 3.20167,-2.872637 5.99951,-5.921463 8.69325,-9.019173 1.85503,-2.330835 3.3953,-4.789134 4.41027,-7.347935 0.76596,-2.440237 0.83827,-4.943709 0.88659,-7.428261 -0.29411,-6.0609791 -3.58067,-0.794349 20.1134,-7.3137665 0.36987,-0.1017675 -0.34462,0.4904706 -0.45753,0.7499177 -0.35873,0.8242449 -0.46094,1.6759716 -0.62159,2.5234175 -1.11597,4.4213093 -3.04577,8.7193283 -4.77494,13.0420323 -1.93631,4.993359 -3.04732,10.106232 -4.26998,15.194767 -0.93789,4.800632 -2.26952,9.550667 -3.45058,14.324697 -1.56242,5.952132 -2.54693,11.962832 -3.91115,17.936065 -1.59235,5.964129 -1.95859,12.021731 -2.61001,18.052401 -0.61242,6.634945 -1.52272,13.24917 -2.96689,19.824933 -1.57489,7.4246 -3.48786,14.81 -5.13991,22.22696 -1.63076,7.10722 -3.62231,14.15693 -4.738,21.31538 -0.60333,6.87647 -1.03331,13.72552 -2.53371,20.5464 -2.13255,6.95171 -4.76181,13.84141 -8.6742,20.4343 -4.18507,6.76073 -9.28178,13.24852 -14.71167,19.58321 -4.52439,5.13416 -8.92582,10.32142 -14.726871,14.84923 -5.362833,3.90902 -11.341025,7.35263 -17.725437,10.46331 -10.398658,4.91683 -21.287249,9.46722 -33.16681,12.50385 -3.393765,0.76891 -6.964038,0.9885 -10.502248,0.70295 -4.558337,-0.55755 -8.201391,-2.31757 -11.644864,-4.30351 -2.986379,-2.1266 -6.114519,-4.16417 -8.731292,-6.50988 -2.752817,-2.36851 -4.537997,-5.14141 -6.2830734,-7.88916 -1.4688391,-2.61973 -2.3807908,-5.3553 -3.4830195,-8.04955 -1.274883,-2.6878 -1.7833605,-5.48393 -2.0325159,-8.28917 -0.1943138,-3.59133 -0.1513607,-7.18611 -0.1880438,-10.77923 -0.06217,-2.80381 -0.1569411,-5.59708 0.3327467,-8.3851 0.6084362,-3.22885 1.9146177,-6.38358 3.1755747,-9.51954 1.223398,-2.55174 2.4822115,-5.09792 3.7839754,-7.63257 1.1772908,-3.32078 3.6967618,-6.2304 6.5075528,-9.02053 1.854967,-2.15222 3.963252,-4.18114 6.029481,-6.24036 0.735516,-0.69828 1.480408,-1.38496 2.291831,-2.04325 0,0 20.929399,-6.0833 20.929399,-6.0833 v 0 c -0.760153,0.71208 -1.71479,1.26582 -2.34941,2.04024 -2.398865,1.92405 -4.361863,4.07771 -6.254443,6.2371 -2.770059,2.65778 -5.76624,5.31643 -6.639422,8.60137 -1.290809,2.53969 -2.584105,5.07562 -3.906362,7.60867 -1.501097,2.99741 -2.554664,6.14918 -3.266047,9.273 -0.608164,2.73728 -0.596817,5.4726 -0.57765,8.23976 -0.03716,3.55951 -0.04328,7.12096 0.183601,10.67803 0.236565,2.69694 0.619486,5.39835 1.836535,7.98743 1.107654,2.62564 1.946268,5.30672 3.350925,7.87325 1.649365,2.63886 3.245872,5.32641 5.971663,7.56316 2.57857,2.2199 5.512741,4.23835 8.472554,6.22438 3.210247,1.77606 6.599137,3.29661 10.87369,3.47971 3.405166,-0.0146 6.754422,-0.32539 9.915834,-1.23296 0.690655,-0.19057 3.162189,-0.8692 3.769837,-1.05176 0.746895,-0.22439 2.920133,-0.98942 2.219726,-0.70437 -31.475933,12.80903 -18.003454,7.28681 -11.363476,4.2579 6.485367,-2.9946 12.545438,-6.34335 17.995738,-10.17967 6.146422,-4.33222 10.470321,-9.55675 15.139533,-14.63086 5.500718,-6.25442 10.546238,-12.69131 14.796948,-19.38382 4.07977,-6.43834 6.68304,-13.24043 8.81772,-20.08635 1.65033,-6.80055 2.22467,-13.62528 2.67851,-20.50436 1.03234,-7.18948 3.04473,-14.25983 4.70117,-21.38889 1.71655,-7.40692 3.61223,-14.79264 5.14815,-22.21697 1.38252,-6.53459 2.33635,-13.099192 2.9181,-19.689533 0.66546,-6.057708 0.90993,-12.146653 2.45985,-18.146508 1.47708,-5.95567 2.45177,-11.961461 3.86909,-17.924041 1.11053,-4.777189 2.34092,-9.529348 3.38676,-14.311817 1.30294,-5.118956 2.33815,-10.27945 4.18697,-15.327333 1.6453,-4.225001 3.46557,-8.423448 4.65052,-12.722421 0.0227,-0.231798 0.37516,-3.616141 0.52821,-3.675832 24.6877,-9.6297456 21.23151,-12.3467459 20.84807,-6.0493288 -0.0384,2.5775697 -0.0377,5.1672838 -0.66821,7.7177668 -0.76845,2.74394 -2.45534,5.299981 -4.24495,7.803971 -2.64735,3.15236 -5.46326,6.227953 -8.58987,9.173703 -2.83292,2.622835 -5.63781,5.28659 -9.25657,7.450005 -7.29101,4.376688 -16.29975,6.782003 -24.66429,10.328534 -5.68598,2.410826 23.2476,-9.074684 17.40889,-6.837751 -7.14445,2.737178 -14.2175,5.559047 -21.32626,8.338568 -0.72102,0.274524 -1.44208,0.549049 -2.16312,0.823572 -4.68363,1.753902 -9.50997,3.3322 -14.55914,4.548344 -4.867076,1.089181 -9.843017,1.923364 -14.663838,3.109415 -6.661477,1.390601 -13.346156,2.75969 -20.087252,3.95754 -6.521494,1.178763 -13.023015,2.675071 -19.813371,2.887086 -4.719893,0.355216 -9.363431,0.991955 -13.918559,1.912 -5.431696,0.885916 -11.041504,1.402671 -16.179498,2.968344 0,0 17.836711,-9.551645 17.836711,-9.551645 z"
       inkscape:connector-curvature="0"
       style="stroke-width:0.44189486" />
    <path
       id="path3739"
       d="m 180.7292,128.40523 c 2.01,-4.11976 3.12367,-8.3815 3.83885,-12.68183 0.53623,-3.81158 0.61246,-7.6433 0.62559,-11.46927 -0.0888,-3.07123 0.13601,-6.148383 -0.16516,-9.214338 -0.57715,-3.388598 -2.37926,-6.552942 -4.45536,-9.631075 -2.02713,-3.305317 -4.84076,-6.268112 -7.94203,-9.14397 -2.24368,-1.782712 -4.42369,-3.741168 -7.3522,-5.032 -3.61457,-0.921078 -7.59512,-0.898995 -11.41045,-0.958537 -4.14162,-0.02964 -8.28344,-0.0036 -12.42515,2.8e-4 -4.58392,-0.138177 -8.9269,-0.04163 -13.2275,1.098083 -0.64587,0.232806 -1.27931,0.48214 -1.93755,0.698413 -1.42475,0.468121 -5.61053,1.989217 -4.23636,1.456171 30.71984,-11.916204 19.30417,-7.715551 12.68697,-4.625015 -4.03935,2.142743 -8.07246,4.289334 -12.13472,6.412824 -3.08983,1.870966 -6.32056,3.692096 -8.86005,5.921935 -3.6052,3.335183 -6.59635,6.951033 -9.81091,10.4603 -3.63426,3.77083 -6.908987,7.690377 -10.253673,11.580059 -2.673739,3.21091 -4.878232,6.57953 -6.771984,10.0316 -1.952495,3.83363 -3.441103,7.76585 -5.383574,11.60166 -2.040602,4.19723 -3.795679,8.4621 -5.564384,12.71651 -1.970856,4.53504 -3.501791,9.1509 -5.092691,13.75203 -1.233264,4.54973 -2.925138,9.03175 -4.064706,13.59302 -1.188585,3.95067 -1.955595,7.94087 -2.383331,11.95978 -0.426552,4.02566 -0.07943,8.06555 -0.676646,12.07996 -0.889542,3.73589 -1.795309,7.46535 -2.295577,11.23589 -0.371454,3.55209 -0.389165,7.11588 -0.421081,10.67516 -0.0094,4.14435 -0.02394,8.28869 -0.03226,12.43303 -0.0042,4.42613 0.03007,8.85224 0.0049,13.27834 0.0011,3.64862 0.05548,7.29696 0.10636,10.94537 0.0365,2.14195 1.4041,3.96823 2.811972,5.82675 1.780267,2.17582 4.116539,4.12923 6.425174,6.0581 2.232837,2.11311 4.561847,4.141 7.184337,6.03889 2.876011,2.03274 6.011025,3.89363 9.150759,5.73723 3.912837,2.16101 8.368297,3.80011 12.458722,5.81388 4.174363,2.25552 8.923093,3.79562 13.844403,5.12205 4.03156,0.96926 8.26988,1.32188 12.51557,1.4825 3.68238,0.0987 7.36835,0.0558 11.05249,0.056 3.75069,-0.1673 7.08082,-1.16372 10.32801,-2.37289 -32.62,13.72004 -17.80197,7.28837 -11.06698,3.271 3.11463,-1.89669 6.10814,-3.87751 8.8716,-6.00954 2.57441,-2.05472 4.35567,-4.45116 6.31452,-6.77164 2.32557,-2.03514 2.84192,-4.46598 3.21438,-6.95073 0.57262,-2.81211 1.1942,-5.616 1.51163,-8.44786 0.22386,-2.36924 0.24235,-4.7441 0.2522,-7.11725 0.043,-2.125 -0.11846,-4.25269 0.11153,-6.37319 0.50265,-2.05636 0.95814,-4.1118 1.19786,-6.19058 0.11166,-1.36657 0.0649,-0.68256 0.1404,-2.05202 0,0 20.26545,-6.94197 20.26545,-6.94197 v 0 c -0.0537,1.40109 -0.0203,0.70013 -0.10309,2.10289 -0.18443,2.10187 -0.50464,4.19612 -1.14876,6.25915 -0.51861,2.04873 -0.10813,4.14903 -0.24043,6.22024 -0.0162,2.41177 -0.0491,4.82461 -0.25654,7.23301 -0.27221,2.84657 -0.79811,5.66748 -1.5044,8.4803 -0.30784,2.58988 -0.42003,5.39484 -2.66619,7.60358 -1.109,1.00656 -1.76311,2.04691 -2.65045,3.14164 -1.12429,1.38702 -1.06181,1.09107 -2.38099,2.44277 -0.44906,0.46012 -0.85723,0.93797 -1.28582,1.40696 -2.70377,2.17897 -5.54207,4.25427 -8.67182,6.16111 -8.29542,5.22992 -16.3048,8.75582 -27.5941,12.11565 -3.49832,1.06129 -7.05928,1.86266 -10.95265,1.81087 -3.72232,0.0143 -7.44919,0.0124 -11.16528,-0.15193 -4.37338,-0.29099 -8.709007,-0.82377 -12.819534,-1.91522 -5.019898,-1.41113 -9.729804,-3.21351 -14.05139,-5.46049 -4.197328,-2.01405 -8.834973,-3.59848 -12.724934,-5.88644 -3.131423,-1.92417 -6.402044,-3.74648 -9.268371,-5.85888 -2.643504,-1.92877 -5.012323,-3.99291 -7.308279,-6.11495 -2.391786,-2.01172 -4.741795,-4.08154 -6.630435,-6.32944 -1.625718,-2.07322 -3.25523,-4.0666 -3.294221,-6.48853 0.05088,-3.67276 0.105611,-7.3455 0.105978,-11.01849 -0.02629,-4.42533 0.0065,-8.85068 -0.0079,-13.27604 -0.01866,-4.13571 -0.05608,-8.27139 -0.05979,-12.40718 -0.0042,-3.59016 -0.01968,-7.18266 0.298301,-10.76807 0.416021,-3.80883 1.357773,-7.5668 2.379012,-11.32109 0.774015,-3.97316 0.241129,-7.99246 0.652266,-11.98943 0.371204,-4.07172 1.110205,-8.1215 2.360757,-12.11561 1.087136,-4.60026 2.909458,-9.09218 4.021014,-13.68993 1.584987,-4.6205 3.177866,-9.24936 5.069589,-13.81552 1.734587,-4.27119 3.567225,-8.53137 5.375937,-12.78355 2.1358,-3.7923 3.575989,-7.7433 5.423661,-11.60206 1.760219,-3.54513 3.946214,-6.96575 6.532907,-10.27121 3.376526,-3.92914 6.864565,-7.81831 10.410096,-11.678727 3.217028,-3.463137 6.0626,-7.099537 9.508504,-10.451254 0.791125,-0.854973 1.527602,-1.741204 2.547712,-2.48846 1.876643,-1.374698 4.331366,-2.410208 6.09814,-3.87143 4.04799,-2.163483 8.26426,-4.183782 12.12714,-6.503411 10.1589,-4.796728 20.73522,-9.343548 32.2436,-12.478099 4.48791,-0.798441 9.03473,-0.781515 13.65249,-0.722225 4.16768,-0.01954 8.33793,-0.05571 12.50412,0.03842 4.15831,0.142521 8.55199,0.202161 12.23952,1.663405 2.93966,1.548257 5.3288,3.531934 7.61838,5.507639 3.10768,2.984473 5.92208,6.068562 8.06392,9.431728 2.21807,3.229128 4.17984,6.518675 4.91145,10.074017 0.42788,3.103757 0.20825,6.225876 0.23248,9.340274 -0.0639,3.888713 -0.16049,7.779973 -0.6741,11.656053 -0.64873,4.31315 -1.69312,8.57893 -3.3839,12.76622 0,0 -20.48311,6.64863 -20.48311,6.64863 z"
       inkscape:connector-curvature="0"
       style="stroke-width:0.44189486" />
  </g>
</svg>
